<svg width="996" height="658" viewBox="0 0 996 658" fill="none" xmlns="http://www.w3.org/2000/svg">
<g id="frame 1" clip-path="url(#clip0)">
<g id="grass">
<path id="grass4" d="M891.872 449.638C890.963 483.59 885.276 517.244 874.978 549.61C874.743 550.361 874.496 551.101 874.25 551.852H811.204C811.271 551.179 811.339 550.428 811.406 549.61C815.61 501.283 839.846 207.152 810.868 156.852C813.401 160.932 896.76 296.082 891.872 449.638Z" fill="#E6E6E6"/>
<g id="grass3">
<g id="Group 1">
<path id="Vector" d="M176.355 555.85H87.6151C87.5051 555.51 87.3951 555.18 87.2851 554.85C87.0651 554.18 86.8451 553.52 86.6351 552.85C86.6151 552.8 86.6051 552.74 86.5851 552.69C85.9251 550.64 85.2751 548.58 84.6451 546.53C81.3351 535.77 78.4284 524.997 75.9251 514.21C90.2839 523.329 106.774 528.545 123.765 529.34C122.965 527.88 122.155 526.38 121.315 524.83L68.0051 472.01C66.6951 462.96 65.6351 453.937 64.8251 444.94L146.815 526.93C148.025 526.66 149.225 526.36 150.415 526.04C158.361 523.916 165.981 520.72 173.065 516.54C173.935 527.38 174.695 536.58 175.305 543.82C175.605 547.22 175.855 550.19 176.075 552.69C176.075 552.74 176.085 552.8 176.085 552.85C176.145 553.56 176.205 554.23 176.265 554.85C176.295 555.2 176.325 555.53 176.355 555.85Z" fill="#E6E6E6"/>
<path id="Vector_2" d="M171.625 498.07C170.155 499.18 168.642 500.227 167.085 501.21C162.302 504.261 157.177 506.738 151.815 508.59L70.275 427.05L63.1151 419.89C62.9851 417.25 62.8817 414.61 62.805 411.97C62.665 407.67 62.5784 403.377 62.545 399.09C68.6393 388.997 77.0144 380.473 86.9983 374.202C96.9823 367.931 108.297 364.088 120.035 362.98C122.255 362.77 124.515 362.67 126.795 362.67C134.577 362.669 142.312 363.89 149.715 366.29C154.413 367.797 158.952 369.763 163.265 372.16C164.545 395.19 165.925 417.28 167.295 437.72H160.155V454.39H168.425C169.085 463.75 169.725 472.69 170.345 481.12C170.785 487.03 171.212 492.68 171.625 498.07Z" fill="#E6E6E6"/>
<path id="Vector_3" d="M161.905 346.66C162.015 348.79 162.125 350.917 162.235 353.04C145.618 346.109 127.324 344.243 109.65 347.675C91.9765 351.107 75.7105 359.684 62.8951 372.33C63.2951 361.05 63.9951 349.877 64.9951 338.81C81.2351 156.03 172.235 7.27003 176.735 3.05176e-05C153.675 40.4 154.665 190.96 160.915 326.1C161.235 333 161.565 339.853 161.905 346.66Z" fill="#E6E6E6"/>
</g>
<path id="Vector_4" d="M70.275 427.05L63.1151 419.89L55.925 412.7C56.9157 410.029 58.0541 407.415 59.3351 404.87C60.4851 407.24 61.6417 409.607 62.805 411.97C65.285 417.02 67.775 422.047 70.275 427.05Z" fill="#E6E6E6"/>
</g>
<path id="grass2" d="M887.141 549.61C886.615 550.361 886.065 551.112 885.505 551.852H838.209C838.568 551.213 838.983 550.462 839.465 549.61C847.278 535.507 870.405 493.346 891.872 449.638C914.943 402.667 936.107 353.915 934.325 336.27C934.874 340.249 950.837 461.565 887.141 549.61Z" fill="#E6E6E6"/>
<path id="grass1" d="M138.345 555.85H71.7751C71.5251 555.52 71.2751 555.19 71.0251 554.85C70.535 554.19 70.0451 553.52 69.5751 552.85C69.5351 552.8 69.5051 552.74 69.4651 552.69C63.7751 544.82 58.5251 536.78 53.7151 528.57L53.7051 528.56C32.7251 492.93 19.6551 454.76 11.6651 418.5C-7.27491 332.51 2.38509 257.32 3.04509 252.5C1.24509 270.99 17.1851 313.53 38.7851 361.24C42.6151 369.71 46.6251 378.34 50.7451 387.02C44.51 396.351 40.0488 406.751 37.5851 417.7L94.6951 474.81C104.615 493.8 113.815 510.98 121.315 524.83L68.0051 472.01L35.0751 439.38C35.2887 463.192 44.8783 485.96 61.7651 502.75C66.0711 507.055 70.8171 510.896 75.9251 514.21C90.2839 523.329 106.774 528.545 123.765 529.34C129.245 539.43 133.665 547.44 136.575 552.69C136.605 552.75 136.635 552.8 136.665 552.85C136.885 553.24 137.095 553.61 137.295 553.97C137.465 554.28 137.625 554.57 137.785 554.85C137.975 555.2 138.165 555.53 138.345 555.85Z" fill="#E6E6E6"/>
</g>
<path id="line" d="M990.748 552.852H6.74768V554.852H990.748V552.852Z" fill="#000048"/>
<path id="gatsby-text" d="M561.325 483.22H502.965V506.56H533.815C528.805 522.41 517.135 533.25 495.455 533.25C471.275 533.25 453.765 513.23 453.765 489.05C453.765 464.87 470.445 444.03 494.625 444.03C501.403 444.127 508.073 445.751 514.136 448.783C520.2 451.815 525.501 456.175 529.645 461.54L548.825 449.03C542.656 440.436 534.513 433.451 525.081 428.661C515.648 423.872 505.203 421.42 494.625 421.51C457.935 421.51 427.915 451.53 427.915 489.05C427.915 518.72 445.645 543.71 472.045 552.85C474.325 553.648 476.649 554.315 479.005 554.85C489.286 557.17 499.954 557.17 510.235 554.85C512.594 554.315 514.921 553.648 517.205 552.85C543.595 543.71 561.325 518.72 561.325 489.05C562.165 486.55 561.325 484.88 561.325 483.22ZM969.065 469.04L945.715 516.57L922.965 474.73L919.875 469.04H892.355L912.375 504.5L932.375 539.92L925.535 552.85L924.475 554.85L902.365 596.62H929.045L950.885 554.85L951.925 552.85L995.745 469.04H969.065ZM888.765 488.09C886.328 483.307 882.958 479.061 878.855 475.6C871.643 469.619 862.534 466.407 853.165 466.54C846.495 466.54 834.825 468.21 826.485 479.88V412.34H803.135V552.42H825.645V541.58C828.803 545.988 833.028 549.521 837.925 551.85C838.725 552.23 839.525 552.56 840.315 552.85C843.415 553.991 846.667 554.665 849.965 554.85C850.875 554.91 851.665 554.92 852.335 554.92C853.185 554.92 854.015 554.9 854.845 554.85C858.6 554.669 862.315 553.997 865.895 552.85C866.835 552.55 867.745 552.22 868.635 551.85C871.002 550.896 873.266 549.707 875.395 548.3C887.065 540.61 894.025 526.89 894.025 510.73C894.106 502.871 892.303 495.108 888.765 488.09ZM848.005 534.06C847.785 534.08 847.555 534.08 847.325 534.08C833.155 534.08 823.985 524.07 823.985 510.73C823.985 497.39 833.155 487.39 847.325 487.39C856.405 487.39 863.425 491.49 867.295 497.94C869.571 501.814 870.74 506.238 870.675 510.73C870.675 523.84 861.005 533.74 848.005 534.06ZM787.295 510.73C783.125 504.06 773.115 501.56 766.445 499.06L760.615 497.39C753.945 494.89 753.105 492.39 753.105 489.89C753.105 485.72 756.445 483.22 762.275 483.22C764.785 483.22 769.785 484.05 775.615 489.05L787.295 475.71C779.725 469.668 770.3 466.429 760.615 466.54C753.945 466.54 745.605 467.37 738.935 472.38C733.735 477.42 730.738 484.31 730.595 491.55C730.548 494.51 731.117 497.447 732.265 500.176C733.413 502.904 735.116 505.364 737.265 507.4C742.265 512.4 748.935 514.9 754.775 517.4L759.775 519.07C763.115 519.9 767.285 522.41 767.285 527.41C767.285 533.25 762.275 536.58 755.605 536.58C748.935 536.58 742.265 531.58 737.265 526.57L724.755 540.75C728.785 544.78 734.415 550.01 743.275 552.85C746.926 554.002 750.711 554.674 754.535 554.85C755.425 554.9 756.335 554.92 757.275 554.92C758.065 554.92 758.855 554.9 759.625 554.85C763.189 554.686 766.712 554.012 770.085 552.85C774.582 551.309 778.731 548.896 782.295 545.75C785.263 543.166 787.625 539.958 789.21 536.355C790.795 532.753 791.565 528.845 791.465 524.91C791.61 519.861 790.15 514.897 787.295 510.73ZM704.745 469.04V440.69H681.395V469.04H672.225V489.05H681.395V552.42H704.745V489.05H720.585V469.04H704.745ZM634.705 469.04V479.88C627.205 467.37 614.695 466.54 608.025 466.54C583.845 466.54 567.165 485.72 567.165 510.73C567.165 530.31 578.095 547.15 595.985 552.85C599.596 553.998 603.341 554.67 607.125 554.85C607.975 554.9 608.825 554.92 609.695 554.92C610.585 554.92 611.545 554.91 612.565 554.85C615.87 554.717 619.13 554.042 622.215 552.85C626.725 551.06 631.445 547.74 635.535 541.58V552.42H658.885V469.04H634.705ZM615.525 534.08C601.355 534.08 592.175 524.07 592.175 510.73C592.175 497.39 602.185 487.39 615.525 487.39C629.705 487.39 638.875 497.39 638.875 510.73C638.875 524.07 628.865 534.08 615.525 534.08Z" fill="black"/>
<path id="gatsby-logo" d="M168.425 454.39C169.085 463.75 169.725 472.69 170.345 481.12C170.785 487.03 171.212 492.68 171.625 498.07C174.601 495.858 177.406 493.425 180.015 490.79C189.973 480.756 196.952 468.155 200.175 454.39H168.425ZM62.8052 411.97C62.6652 407.67 62.5785 403.377 62.5452 399.09C61.3952 400.96 60.3252 402.887 59.3352 404.87C58.0542 407.415 56.9158 410.029 55.9252 412.7L63.1152 419.89C62.9852 417.25 62.8818 414.61 62.8052 411.97ZM168.425 454.39C169.085 463.75 169.725 472.69 170.345 481.12C170.785 487.03 171.212 492.68 171.625 498.07C174.601 495.858 177.406 493.425 180.015 490.79C189.973 480.756 196.952 468.155 200.175 454.39H168.425ZM168.425 454.39C169.085 463.75 169.725 472.69 170.345 481.12C170.785 487.03 171.212 492.68 171.625 498.07C174.601 495.858 177.406 493.425 180.015 490.79C189.973 480.756 196.952 468.155 200.175 454.39H168.425ZM62.5452 399.09C61.3952 400.96 60.3252 402.887 59.3352 404.87C58.0542 407.415 56.9158 410.029 55.9252 412.7L63.1152 419.89C62.9852 417.25 62.8818 414.61 62.8052 411.97C62.6652 407.67 62.5785 403.377 62.5452 399.09ZM234.965 393.96C228.39 377.888 218.341 363.47 205.539 351.738C192.737 340.006 177.498 331.251 160.915 326.1C144.953 321.196 128.121 319.793 111.568 321.986C95.0144 324.179 79.1289 329.918 64.9952 338.81C55.2069 344.962 46.3759 352.52 38.7852 361.24C28.4576 373.059 20.6296 386.847 15.7728 401.772C10.9159 416.698 9.13073 432.452 10.5248 448.085C11.9188 463.719 16.4633 478.908 23.8843 492.739C31.3053 506.569 41.4493 518.754 53.7052 528.56L53.7152 528.57C63.0433 536.107 73.4752 542.165 84.6452 546.53C98.0791 551.773 112.374 554.459 126.795 554.45C130.335 554.45 133.835 554.29 137.295 553.97C140.225 553.71 143.122 553.337 145.985 552.85C156.12 551.172 165.982 548.134 175.305 543.82C189.351 537.338 201.982 528.153 212.478 516.789C222.973 505.425 231.128 492.105 236.475 477.59C239.232 470.082 241.196 462.307 242.335 454.39C245.297 433.95 242.753 413.089 234.965 393.96ZM75.9252 514.21C70.8172 510.896 66.0712 507.055 61.7652 502.75C44.8784 485.96 35.2888 463.192 35.0752 439.38L68.0052 472.01L121.315 524.83L125.965 529.44C125.235 529.41 124.495 529.38 123.765 529.34C106.774 528.545 90.284 523.329 75.9252 514.21ZM216.965 454.39C213.523 472.564 204.649 489.266 191.515 502.29C187.592 506.198 183.329 509.749 178.775 512.9C176.925 514.18 175.015 515.4 173.065 516.54C165.981 520.72 158.361 523.916 150.415 526.04C149.225 526.36 148.025 526.66 146.815 526.93L37.5852 417.7C40.0489 406.751 44.5101 396.351 50.7452 387.02C54.2818 381.72 58.3532 376.798 62.8952 372.33C79.9038 355.492 102.861 346.032 126.795 346C145.944 345.936 164.626 351.902 180.195 363.05C188.16 368.743 195.182 375.65 201.005 383.52L188.505 394.36C181.776 385.24 173.169 377.67 163.265 372.16C158.952 369.763 154.414 367.797 149.715 366.29C142.312 363.89 134.578 362.669 126.795 362.67C124.515 362.67 122.255 362.77 120.035 362.98C108.297 364.088 96.9824 367.931 86.9984 374.202C77.0145 380.473 68.6394 388.997 62.5452 399.09C61.3952 400.96 60.3252 402.887 59.3352 404.87C58.0542 407.415 56.9158 410.029 55.9252 412.7L63.1152 419.89L70.2752 427.05L151.815 508.59C157.177 506.738 162.303 504.261 167.085 501.21C168.645 500.23 170.159 499.183 171.625 498.07C174.601 495.858 177.406 493.425 180.015 490.79C189.973 480.756 196.952 468.155 200.175 454.39H160.155V437.72H218.515C218.518 443.313 217.999 448.894 216.965 454.39ZM168.425 454.39C169.085 463.75 169.725 472.69 170.345 481.12C170.785 487.03 171.212 492.68 171.625 498.07C174.601 495.858 177.406 493.425 180.015 490.79C189.973 480.756 196.952 468.155 200.175 454.39H168.425ZM168.425 454.39C169.085 463.75 169.725 472.69 170.345 481.12C170.785 487.03 171.212 492.68 171.625 498.07C174.601 495.858 177.406 493.425 180.015 490.79C189.973 480.756 196.952 468.155 200.175 454.39H168.425Z" fill="#663399"/>
<g id="dude">
<path id="Vector_5" d="M332.398 648.706L365.998 643.436L352.162 628.942H332.398V648.706Z" fill="#FFB8B8"/>
<path id="Vector_6" d="M338.83 656.707L372.066 645.774C372.948 645.484 373.757 645.007 374.438 644.377C375.119 643.746 375.656 642.976 376.013 642.119C376.37 641.262 376.538 640.339 376.506 639.411C376.474 638.483 376.243 637.573 375.828 636.743C375.258 635.603 374.363 634.657 373.257 634.024C372.151 633.391 370.882 633.099 369.611 633.185L362.071 633.694L359.117 632.031C358.806 631.856 358.447 631.782 358.092 631.82C357.737 631.858 357.402 632.005 357.135 632.242C356.867 632.479 356.68 632.793 356.6 633.141C356.519 633.489 356.549 633.853 356.685 634.183L359.409 640.801L331.739 638.824L330.373 649.746C330.238 650.831 330.379 651.932 330.783 652.947C331.187 653.963 331.842 654.86 332.686 655.554C333.53 656.249 334.536 656.719 335.61 656.92C336.684 657.122 337.792 657.048 338.83 656.707Z" fill="#000048"/>
<path id="Vector_7" d="M240.931 632.156L275.849 641.379C269.418 628.038 265.458 616.233 267.943 608.438L251.473 606.461L240.931 632.156Z" fill="#FFB8B8"/>
<path id="Vector_8" d="M243.078 643.864L279.207 646.207C280.165 646.269 281.126 646.124 282.023 645.782C282.921 645.439 283.734 644.908 284.408 644.223C285.081 643.538 285.599 642.716 285.927 641.813C286.255 640.911 286.384 639.948 286.306 638.99C286.199 637.676 285.706 636.422 284.889 635.387C284.071 634.352 282.966 633.582 281.712 633.173L274.278 630.75L272.084 628.012C271.853 627.724 271.538 627.515 271.182 627.414C270.827 627.313 270.448 627.325 270.1 627.449C269.752 627.573 269.451 627.802 269.239 628.105C269.027 628.408 268.915 628.769 268.918 629.139L268.978 636.544L243.178 623.958L237.649 633.915C237.099 634.904 236.809 636.016 236.805 637.147C236.801 638.278 237.083 639.391 237.625 640.384C238.167 641.377 238.951 642.217 239.904 642.825C240.858 643.434 241.949 643.791 243.078 643.864Z" fill="#000048"/>
<path id="Vector_9" d="M357.423 226.345C370.886 226.345 381.799 215.431 381.799 201.969C381.799 188.506 370.886 177.592 357.423 177.592C343.96 177.592 333.046 188.506 333.046 201.969C333.046 215.431 343.96 226.345 357.423 226.345Z" fill="#FFB8B8"/>
<path id="Vector_10" d="M318.744 233.705L346.921 255.01C351.475 237.623 356.941 225.203 364.103 222.022L335.925 205.528L318.744 233.705Z" fill="#FFB8B8"/>
<path id="Vector_11" d="M245.895 606.197L269.949 616.506L325.616 485.241L330.084 631.282L354.138 629.908L380.94 401.052L378.879 387.994L287.817 408.268L286.443 481.804L245.895 606.197Z" fill="#000048"/>
<path id="Vector_12" d="M385.064 194.875C385.064 194.875 369.257 180.443 364.446 186.628C359.636 192.814 358.261 194.188 355.512 194.188C352.763 194.188 345.89 201.748 345.89 201.748C345.89 201.748 342.454 194.875 338.331 200.373C334.207 205.872 333.52 214.119 333.52 214.119C333.52 214.119 318.4 179.069 345.203 172.196C372.006 165.323 391.249 186.628 385.064 194.875Z" fill="#000048"/>
<path id="Vector_13" d="M281.632 419.264C294.69 413.546 295.075 418.034 313.933 425.449C337.685 428.398 352.784 428.776 360.323 418.921C363.409 399.354 365.938 380.592 367.498 362.751C367.821 359.074 368.1 355.434 368.336 351.831C371.085 309.86 367.718 273.374 352.419 244.014L324.929 223.396L315.961 229.905C294.539 245.45 297.872 269.333 295.027 295.648L281.632 419.264Z" fill="#6C63FF"/>
<path id="Vector_14" d="M364.79 413.079L379.222 400.708L377.848 388.338H364.79V413.079Z" fill="#FFB8B8"/>
<path id="Vector_15" opacity="0.2" d="M326.7 289.029C326.7 289.029 286.097 341.948 315.099 366.002C344.101 390.056 360.323 405.175 360.323 405.175C360.323 405.175 358.602 301.4 326.7 289.029Z" fill="black"/>
<path id="Vector_16" opacity="0.2" d="M342.454 341.948L367.498 362.751C367.821 359.074 368.1 355.434 368.336 351.831L351.389 275.972L342.454 341.948Z" fill="black"/>
<path id="Vector_17" d="M360.666 404.832L380.597 389.025L354.481 323.048L353.888 254.278C353.861 251.067 352.847 247.943 350.984 245.328C349.122 242.713 346.501 240.734 343.476 239.658C341.13 238.824 338.619 238.561 336.151 238.892C333.684 239.222 331.331 240.136 329.287 241.558C327.243 242.98 325.568 244.869 324.4 247.067C323.232 249.266 322.606 251.712 322.572 254.201L321.493 334.045L360.666 404.832Z" fill="#6C63FF"/>
</g>
</g>
<defs>
<clipPath id="clip0">
<rect width="995.745" height="657.038" fill="white"/>
</clipPath>
</defs>
</svg>
